<svg id="e55j8ismfaro1" xmlns="http://www.w3.org/2000/svg" viewBox="0 0 500 385" shape-rendering="geometricPrecision" text-rendering="geometricPrecision"><g id="e55j8ismfaro2" transform="translate(-906.5 -1221.87)"><g id="e55j8ismfaro3" transform="translate(959 1271)"><g id="e55j8ismfaro4" transform="translate(-52.5 -49.13)"><rect id="e55j8ismfaro5" width="483" height="370" rx="10" ry="10" transform="translate(8.5 7.5)" fill="#FFF" stroke="rgba(0,0,0,0.06)" stroke-width="1"/></g><path id="e55j8ismfaro6" d="M-18.4 303.022h432.068" fill="none" stroke="#EEE" stroke-width="1"/><path id="e55j8ismfaro7" d="M-18.4 267.492h432.068" fill="none" stroke="#EEE" stroke-width="1"/><path id="e55j8ismfaro8" d="M-18.4 231.412h432.068" fill="none" stroke="#EEE" stroke-width="1"/><path id="e55j8ismfaro9" d="M-18.4 195.342h432.068" fill="none" stroke="#EEE" stroke-width="1"/><path id="e55j8ismfaro10" d="M-18.4 159.262h432.068" fill="none" stroke="#EEE" stroke-width="1"/><path id="e55j8ismfaro11" d="M-18.4 123.182h432.068" fill="none" stroke="#EEE" stroke-width="1"/><g id="e55j8ismfaro12" transform="translate(138 145.103)"><g id="e55j8ismfaro13" stroke="none" stroke-width="1"><rect id="e55j8ismfaro14" width="22" height="165" rx="0" ry="0" transform="matrix(1 0 0 1.00594 31 -7.716)" fill="#3CD17F"/><rect id="e55j8ismfaro15" width="22" height="200" rx="0" ry="0" transform="matrix(1 0 0 .99029 67 -39.804)" fill="#4B42AD"/><rect id="e55j8ismfaro16" width="22" height="109" rx="0" ry="0" transform="matrix(1 0 0 .98355 104 51.057)" fill="#F4F4F4"/><rect id="e55j8ismfaro17" width="21" height="144" rx="0" ry="0" transform="matrix(1 0 0 1.00313 142 13.814)" fill="#F4F4F4"/><rect id="e55j8ismfaro18" width="22" height="144" rx="0" ry="0" transform="matrix(1 0 0 .99838 -6 14.495)" fill="#F4F4F4"/><rect id="e55j8ismfaro19" width="22" height="72" rx="0" ry="0" transform="matrix(1 0 0 .9781 -41.17 87.503)" fill="#F4F4F4"/></g></g></g><path id="e55j8ismfaro20" d="M915 1284.748h483" fill="none" stroke="#DEDEDE" stroke-width="1"/><path id="e55j8ismfaro21" d="M1.738 0h1.65v-12.056L8.822 0h1.254l5.456-12.056V0H17.2v-15.4h-1.69L9.548-2.442 3.7-15.4H1.738zm23.21.22a5.485 5.485 0 005.544-5.566 5.485 5.485 0 00-5.544-5.566 5.466 5.466 0 00-5.522 5.566A5.466 5.466 0 0024.948.22zm0-1.518a3.945 3.945 0 01-3.938-4.048 3.932 3.932 0 013.938-4.048 3.95 3.95 0 013.96 4.048 3.964 3.964 0 01-3.96 4.046zM40.656-15.4v6.38a4.432 4.432 0 00-3.74-1.892 5.344 5.344 0 00-5.346 5.544A5.368 5.368 0 0036.916.22a4.491 4.491 0 003.74-1.892V0h1.606v-15.4zM37.18-1.3a3.957 3.957 0 01-4.026-4.07 3.938 3.938 0 014.026-4.046 4.031 4.031 0 013.476 1.98v4.2A4.147 4.147 0 0137.18-1.3zm15.884-9.394v7.436a3.944 3.944 0 01-3.41 1.914 3.086 3.086 0 01-3.124-3.41v-5.94h-1.606v6.16c0 2.86 1.76 4.752 4.4 4.752a4.387 4.387 0 003.74-1.892V0h1.606v-10.692zm5.874-4.706h-1.606V0h1.606zm12.276 9.724a5.062 5.062 0 00-5.126-5.236 5.419 5.419 0 00-5.434 5.5A5.429 5.429 0 0066.11.22c2.552 0 4.6-1.43 5.016-3.608H69.52c-.286 1.32-1.672 2.156-3.366 2.156a3.821 3.821 0 01-3.916-3.828h8.954c.019-.205.026-.41.022-.616zM62.3-6.424a3.66 3.66 0 013.722-3.036A3.323 3.323 0 0169.5-6.424zM76.758.22c2.288 0 3.982-1.364 3.982-3.256 0-4.422-6.49-2.112-6.49-4.994 0-.924.9-1.54 2.2-1.54a2.3 2.3 0 012.464 1.716h1.628c-.242-1.914-2-3.058-4.048-3.058-2.31 0-3.806 1.254-3.806 2.992 0 4.136 6.49 1.914 6.49 4.928 0 1.078-.99 1.826-2.486 1.826a2.478 2.478 0 01-2.728-2h-1.54C72.644-1.078 74.36.22 76.758.22zm16.082 0c3.212 0 5.368-1.98 5.368-4.378 0-6.072-9.042-3.3-9.042-7.37 0-1.5 1.386-2.508 3.388-2.508 2.024 0 3.41 1.21 3.476 2.882h1.694c0-2.486-1.892-4.466-5.126-4.466-2.926 0-5.06 1.716-5.06 4.092 0 5.654 9.02 2.9 9.02 7.37 0 1.65-1.584 2.816-3.718 2.816-2.266 0-3.916-1.408-3.916-3.432H87.3C87.3-1.87 89.606.22 92.84.22zm12.408 0a5.485 5.485 0 005.544-5.566 5.485 5.485 0 00-5.544-5.566 5.466 5.466 0 00-5.522 5.566A5.466 5.466 0 00105.248.22zm0-1.518a3.945 3.945 0 01-3.938-4.048 3.932 3.932 0 013.938-4.048 3.95 3.95 0 013.96 4.048 3.964 3.964 0 01-3.96 4.046zm9.174-14.1h-1.606V0h1.606zm10.8 0v6.38a4.432 4.432 0 00-3.74-1.892 5.344 5.344 0 00-5.346 5.544A5.368 5.368 0 00121.484.22a4.491 4.491 0 003.74-1.892V0h1.606v-15.4zM121.748-1.3a3.957 3.957 0 01-4.026-4.07 3.938 3.938 0 014.026-4.048 4.031 4.031 0 013.476 1.98v4.2a4.147 4.147 0 01-3.476 1.938z" transform="translate(940 1264.37)" opacity="1" fill="#333" stroke="none" stroke-width="1"/><path id="e55j8ismfaro22" d="M10.3-12.6H.45v2.016h3.87V0h2.106v-10.584H10.3zM13.572.18a4.489 4.489 0 004.572-4.572 4.5 4.5 0 00-4.572-4.59 4.489 4.489 0 00-4.554 4.59A4.474 4.474 0 0013.572.18zm0-1.926A2.568 2.568 0 0111-4.392a2.572 2.572 0 012.574-2.664 2.587 2.587 0 012.592 2.664 2.582 2.582 0 01-2.594 2.646zm10.8-5.148V-8.8h-2.3v-2.36h-2.02v2.36h-1.674v1.908h1.674v3.582c0 2.232 1.3 3.42 3.24 3.42.363 0 .725-.037 1.08-.11v-1.854c-.212.052-.43.076-.648.072a1.448 1.448 0 01-1.656-1.566v-3.546zM31.734-8.8v1.188a3.368 3.368 0 00-2.808-1.368A4.366 4.366 0 0024.7-4.41 4.371 4.371 0 0028.926.18a3.368 3.368 0 002.808-1.368V0h2v-8.8zM29.34-1.728a2.618 2.618 0 01-2.664-2.682 2.6 2.6 0 012.664-2.664c.976-.005 1.884.5 2.394 1.332v2.7a2.841 2.841 0 01-2.394 1.314zM37.512-12.6h-2V0h2zM47.322.18c2.79 0 4.518-1.782 4.518-3.762 0-4.842-6.966-3.006-6.966-5.652 0-.936.846-1.548 2.124-1.548a2.069 2.069 0 012.286 1.962h2.16c0-2.124-1.476-3.96-4.374-3.96-2.466 0-4.266 1.494-4.266 3.564 0 4.608 6.948 2.79 6.948 5.634 0 1.062-1.008 1.782-2.43 1.782a2.339 2.339 0 01-2.592-2.268h-2.088c0 2.484 1.958 4.248 4.68 4.248zM59.868-8.8v1.188a3.368 3.368 0 00-2.808-1.37 4.366 4.366 0 00-4.23 4.572A4.371 4.371 0 0057.06.18a3.368 3.368 0 002.808-1.368V0h2v-8.8zm-2.394 7.072A2.618 2.618 0 0154.81-4.41a2.6 2.6 0 012.664-2.664c.976-.005 1.884.5 2.394 1.332v2.7a2.841 2.841 0 01-2.394 1.314zM65.646-12.6h-2V0h2zm10.008 8.01a4.256 4.256 0 00-4.3-4.392 4.483 4.483 0 00-4.536 4.536A4.523 4.523 0 0071.388.18a3.931 3.931 0 004.158-3.08H73.53a2 2 0 01-2.106 1.26 2.441 2.441 0 01-2.574-2.104h6.75a5.9 5.9 0 00.054-.846zM68.9-5.454a2.258 2.258 0 012.34-1.71c1.07-.08 2.03.656 2.232 1.71zM80.118.18c1.944 0 3.4-1.188 3.4-2.772 0-3.672-5.112-2.034-5.112-3.816 0-.558.558-.9 1.35-.9a1.485 1.485 0 011.62 1.08h2.016c-.2-1.782-1.782-2.754-3.6-2.754-2.052 0-3.33 1.17-3.33 2.7 0 3.348 5.094 1.818 5.094 3.708 0 .612-.576 1.026-1.548 1.026-.99 0-1.746-.5-1.818-1.278h-1.924C76.446-.936 77.958.18 80.118.18z" transform="translate(960.533 1322.377)" opacity="1" fill="#333" stroke="none" stroke-width="1"/><ellipse id="e55j8ismfaro23" rx="5" ry="4.5" transform="translate(945.533 1315.877)" opacity="1" fill="#3CD17F" stroke="none" stroke-width="1"/><path id="e55j8ismfaro24" d="M7.164-5.148h3.654v1.638a4.148 4.148 0 01-3.6 1.638A4.273 4.273 0 012.9-6.354a4.126 4.126 0 014.158-4.374 3.518 3.518 0 013.51 2.3h2.376c-.4-2.394-2.88-4.356-5.886-4.356A6.254 6.254 0 00.72-6.354 6.345 6.345 0 007.074.162a6.622 6.622 0 005.868-2.88v-4.446H7.164zm11.682-3.834A2.728 2.728 0 0016.6-7.6v-1.2h-2V0h2v-5.616a2.591 2.591 0 012.088-1.512c.378.01.754.07 1.116.18v-1.89a2.521 2.521 0 00-.958-.144zM24.372.18a4.489 4.489 0 004.572-4.572 4.5 4.5 0 00-4.572-4.59 4.489 4.489 0 00-4.554 4.59A4.474 4.474 0 0024.372.18zm0-1.926A2.568 2.568 0 0121.8-4.392a2.572 2.572 0 012.574-2.664 2.587 2.587 0 012.592 2.664 2.582 2.582 0 01-2.594 2.646zM32.22 0h1.58l2.088-5.706L37.98 0h1.6l3.186-8.8h-2.16l-1.834 5.722L36.684-8.8H35.1l-2.07 5.722L31.194-8.8h-2.16zm16.65-6.894V-8.8h-2.3v-2.36h-2.02v2.36h-1.674v1.908h1.674v3.582c0 2.232 1.3 3.42 3.24 3.42.363 0 .725-.037 1.08-.11v-1.854c-.212.052-.43.076-.648.072a1.448 1.448 0 01-1.656-1.566v-3.546zm5.922-2.088a3.141 3.141 0 00-2.682 1.368V-12.6h-2V0h2v-5.76a2.56 2.56 0 012.2-1.224A2.03 2.03 0 0156.376-4.7V0h2.016v-5.022c0-2.43-1.386-3.96-3.6-3.96z" transform="translate(1115 1322.172)" opacity="1" fill="#333" stroke="none" stroke-width="1"/><path id="e55j8ismfaro25" d="M.792 23h8.3v-1.314H2.916l3.69-3.708c1.44-1.386 2.322-2.754 2.322-4.122a3.652 3.652 0 00-3.906-3.636 3.93 3.93 0 00-4.194 4.158h1.35A2.642 2.642 0 015 11.534a2.378 2.378 0 012.538 2.358c0 .99-.648 1.98-1.908 3.258L.792 21.992zm13.14.18a4.124 4.124 0 004.23-4.068 3.929 3.929 0 00-4.068-4.05 3.52 3.52 0 00-2.3.774l.414-4.158h5.184V10.4H11l-.6 6.714h1.17a3.159 3.159 0 012.358-.9 2.824 2.824 0 012.844 2.88 2.778 2.778 0 01-2.844 2.772 2.707 2.707 0 01-2.808-2.016H9.774a3.886 3.886 0 004.158 3.33zm9.936 0c2.844 0 4.536-2.484 4.536-6.48 0-3.996-1.692-6.48-4.536-6.48-2.862 0-4.554 2.484-4.554 6.48 0 3.996 1.692 6.48 4.554 6.48zm0-1.314c-2 0-3.15-1.836-3.15-5.166s1.152-5.166 3.15-5.166c1.98 0 3.15 1.836 3.15 5.166s-1.17 5.166-3.15 5.166z" transform="translate(960 1322.37)" opacity="1" fill="#ACACAC" stroke="none" stroke-width="1"/><circle id="e55j8ismfaro26" r="4.5" transform="translate(1100.5 1315.87)" opacity="1" fill="#4B42AD" stroke="none" stroke-width="1"/><path id="e55j8ismfaro27" d="M.792 23h8.3v-1.314H2.916l3.69-3.708c1.44-1.386 2.322-2.754 2.322-4.122a3.652 3.652 0 00-3.906-3.636 3.93 3.93 0 00-4.194 4.158h1.35A2.642 2.642 0 015 11.534a2.378 2.378 0 012.538 2.358c0 .99-.648 1.98-1.908 3.258L.792 21.992zm13.14.18a4.124 4.124 0 004.23-4.068 3.929 3.929 0 00-4.068-4.05 3.52 3.52 0 00-2.3.774l.414-4.158h5.184V10.4H11l-.6 6.714h1.17a3.159 3.159 0 012.358-.9 2.824 2.824 0 012.844 2.88 2.778 2.778 0 01-2.844 2.772 2.707 2.707 0 01-2.808-2.016H9.774a3.886 3.886 0 004.158 3.33zm9.9-10.4a2.408 2.408 0 10-4.806 0 2.409 2.409 0 104.806 0zm4.1-2.376L19.566 23h1.1l8.37-12.6zM22.9 12.776a1.48 1.48 0 11-2.934 0 1.48 1.48 0 112.934 0zm6.66 7.83a2.408 2.408 0 10-4.806 0 2.409 2.409 0 104.806 0zm-.936 0a1.482 1.482 0 11-2.934 0 1.48 1.48 0 112.934 0z" transform="translate(1115 1322.37)" opacity="1" fill="#ACACAC" stroke="none" stroke-width="1"/></g><script>!function(t,n){&quot;object&quot;==typeof exports&amp;&amp;&quot;undefined&quot;!=typeof module?module.exports=n():&quot;function&quot;==typeof define&amp;&amp;define.amd?define(n):(t=&quot;undefined&quot;!=typeof globalThis?globalThis:t||self).__SVGATOR_PLAYER__=n()}(this,(function(){&quot;use strict&quot;;function t(n){return(t=&quot;function&quot;==typeof Symbol&amp;&amp;&quot;symbol&quot;==typeof Symbol.iterator?function(t){return typeof t}:function(t){return t&amp;&amp;&quot;function&quot;==typeof Symbol&amp;&amp;t.constructor===Symbol&amp;&amp;t!==Symbol.prototype?&quot;symbol&quot;:typeof t})(n)}function n(t,n){if(!(t instanceof n))throw new TypeError(&quot;Cannot call a class as a function&quot;)}function e(t,n){for(var e=0;e&lt;n.length;e++){var r=n[e];r.enumerable=r.enumerable||!1,r.configurable=!0,&quot;value&quot;in r&amp;&amp;(r.writable=!0),Object.defineProperty(t,r.key,r)}}function r(t,n,r){return n&amp;&amp;e(t.prototype,n),r&amp;&amp;e(t,r),t}function i(t){return(i=Object.setPrototypeOf?Object.getPrototypeOf:function(t){return t.__proto__||Object.getPrototypeOf(t)})(t)}function u(t,n){return(u=Object.setPrototypeOf||function(t,n){return t.__proto__=n,t})(t,n)}function o(t,n){return!n||&quot;object&quot;!=typeof n&amp;&amp;&quot;function&quot;!=typeof n?function(t){if(void 0===t)throw new ReferenceError(&quot;this hasn&apos;t been initialised - super() hasn&apos;t been called&quot;);return t}(t):n}function a(t){var n=function(){if(&quot;undefined&quot;==typeof Reflect||!Reflect.construct)return!1;if(Reflect.construct.sham)return!1;if(&quot;function&quot;==typeof Proxy)return!0;try{return Boolean.prototype.valueOf.call(Reflect.construct(Boolean,[],(function(){}))),!0}catch(t){return!1}}();return function(){var e,r=i(t);if(n){var u=i(this).constructor;e=Reflect.construct(r,arguments,u)}else e=r.apply(this,arguments);return o(this,e)}}function l(t,n,e){return(l=&quot;undefined&quot;!=typeof Reflect&amp;&amp;Reflect.get?Reflect.get:function(t,n,e){var r=function(t,n){for(;!Object.prototype.hasOwnProperty.call(t,n)&amp;&amp;null!==(t=i(t)););return t}(t,n);if(r){var u=Object.getOwnPropertyDescriptor(r,n);return u.get?u.get.call(e):u.value}})(t,n,e||t)}var s=Math.abs;function f(t){return t}function c(t,n,e){var r=1-e;return 3*e*r*(t*r+n*e)+e*e*e}function h(){var t=arguments.length&gt;0&amp;&amp;void 0!==arguments[0]?arguments[0]:0,n=arguments.length&gt;1&amp;&amp;void 0!==arguments[1]?arguments[1]:0,e=arguments.length&gt;2&amp;&amp;void 0!==arguments[2]?arguments[2]:1,r=arguments.length&gt;3&amp;&amp;void 0!==arguments[3]?arguments[3]:1;return t&lt;0||t&gt;1||e&lt;0||e&gt;1?null:s(t-n)&lt;=1e-5&amp;&amp;s(e-r)&lt;=1e-5?f:function(i){if(i&lt;=0)return t&gt;0?i*n/t:0===n&amp;&amp;e&gt;0?i*r/e:0;if(i&gt;=1)return e&lt;1?1+(i-1)*(r-1)/(e-1):1===e&amp;&amp;t&lt;1?1+(i-1)*(n-1)/(t-1):1;for(var u,o=0,a=1;o&lt;a;){var l=c(t,e,u=(o+a)/2);if(s(i-l)&lt;1e-5)break;l&lt;i?o=u:a=u}return c(n,r,u)}}function v(){return 1}function d(t){return 1===t?1:0}function y(){var t=arguments.length&gt;0&amp;&amp;void 0!==arguments[0]?arguments[0]:1,n=arguments.length&gt;1&amp;&amp;void 0!==arguments[1]?arguments[1]:0;if(1===t){if(0===n)return d;if(1===n)return v}var e=1/t;return function(t){return t&gt;=1?1:(t+=n*e)-t%e}}function g(t){var n=arguments.length&gt;1&amp;&amp;void 0!==arguments[1]?arguments[1]:2;if(Number.isInteger(t))return t;var e=Math.pow(10,n);return Math.round(t*e)/e}var p=Math.PI/180;function m(t,n,e){return t&gt;=.5?e:n}function b(t,n,e){return 0===t||n===e?n:t*(e-n)+n}function w(t,n,e){var r=b(t,n,e);return r&lt;=0?0:r}function x(t,n,e){return 0===t?n:1===t?e:{x:b(t,n.x,e.x),y:b(t,n.y,e.y)}}function A(t,n,e){return 0===t?n:1===t?e:{x:w(t,n.x,e.x),y:w(t,n.y,e.y)}}function k(t,n,e){var r=function(t,n,e){return Math.round(b(t,n,e))}(t,n,e);return r&lt;=0?0:r&gt;=255?255:r}function _(t,n,e){return 0===t?n:1===t?e:{r:k(t,n.r,e.r),g:k(t,n.g,e.g),b:k(t,n.b,e.b),a:b(t,null==n.a?1:n.a,null==e.a?1:e.a)}}function S(t,n,e){if(0===t)return n;if(1===t)return e;var r=n.length;if(r!==e.length)return m(t,n,e);for(var i=[],u=0;u&lt;r;u++)i.push(_(t,n[u],e[u]));return i}function M(t,n,e){var r=n.length;if(r!==e.length)return m(t,n,e);for(var i=new Array(r),u=0;u&lt;r;u++)i[u]=b(t,n[u],e[u]);return i}function O(t,n){for(var e=[],r=0;r&lt;t;r++)e.push(n);return e}function E(t,n){if(--n&lt;=0)return t;var e=(t=Object.assign([],t)).length;do{for(var r=0;r&lt;e;r++)t.push(t[r])}while(--n&gt;0);return t}var B,I=function(){function t(e){n(this,t),this.list=e,this.length=e.length}return r(t,[{key:&quot;setAttribute&quot;,value:function(t,n){for(var e=this.list,r=0;r&lt;this.length;r++)e[r].setAttribute(t,n)}},{key:&quot;removeAttribute&quot;,value:function(t){for(var n=this.list,e=0;e&lt;this.length;e++)n[e].removeAttribute(t)}},{key:&quot;style&quot;,value:function(t,n){for(var e=this.list,r=0;r&lt;this.length;r++)e[r].style[t]=n}}]),t}(),j=/-./g,P=function(t,n){return n.toUpperCase()};function T(t){return&quot;function&quot;==typeof t?t:m}function F(t){return t?&quot;function&quot;==typeof t?t:Array.isArray(t)?function(t){var n=arguments.length&gt;1&amp;&amp;void 0!==arguments[1]?arguments[1]:f;if(!Array.isArray(t))return n;switch(t.length){case 1:return y(t[0])||n;case 2:return y(t[0],t[1])||n;case 4:return h(t[0],t[1],t[2],t[3])||n}return n}(t,null):function(t,n){var e=arguments.length&gt;2&amp;&amp;void 0!==arguments[2]?arguments[2]:f;switch(t){case&quot;linear&quot;:return f;case&quot;steps&quot;:return y(n.steps||1,n.jump||0)||e;case&quot;bezier&quot;:case&quot;cubic-bezier&quot;:return h(n.x1||0,n.y1||0,n.x2||0,n.y2||0)||e}return e}(t.type,t.value,null):null}function R(t,n,e){var r=arguments.length&gt;3&amp;&amp;void 0!==arguments[3]&amp;&amp;arguments[3],i=n.length-1;if(t&lt;=n[0].t)return r?[0,0,n[0].v]:n[0].v;if(t&gt;=n[i].t)return r?[i,1,n[i].v]:n[i].v;var u,o=n[0],a=null;for(u=1;u&lt;=i;u++){if(!(t&gt;n[u].t)){a=n[u];break}o=n[u]}return null==a?r?[i,1,n[i].v]:n[i].v:o.t===a.t?r?[u,1,a.v]:a.v:(t=(t-o.t)/(a.t-o.t),o.e&amp;&amp;(t=o.e(t)),r?[u,t,e(t,o.v,a.v)]:e(t,o.v,a.v))}function C(t,n){var e=arguments.length&gt;2&amp;&amp;void 0!==arguments[2]?arguments[2]:null;return t&amp;&amp;t.length?&quot;function&quot;!=typeof n?null:(&quot;function&quot;!=typeof e&amp;&amp;(e=null),function(r){var i=R(r,t,n);return null!=i&amp;&amp;e&amp;&amp;(i=e(i)),i}):null}function N(t,n){return t.t-n.t}function q(n,e,r,i,u){var o,a=&quot;@&quot;===r[0],l=&quot;#&quot;===r[0],s=B[r],f=m;switch(a?(o=r.substr(1),r=o.replace(j,P)):l&amp;&amp;(r=r.substr(1)),t(s)){case&quot;function&quot;:if(f=s(i,u,R,F,r,a,e,n),l)return f;break;case&quot;string&quot;:f=C(i,T(s));break;case&quot;object&quot;:if((f=C(i,T(s.i),s.f))&amp;&amp;&quot;function&quot;==typeof s.u)return s.u(e,f,r,a,n)}return f?function(t,n,e){var r=arguments.length&gt;3&amp;&amp;void 0!==arguments[3]&amp;&amp;arguments[3];if(r)return t instanceof I?function(r){return t.style(n,e(r))}:function(r){return t.style[n]=e(r)};if(Array.isArray(n)){var i=n.length;return function(r){var u=e(r);if(null==u)for(var o=0;o&lt;i;o++)t[o].removeAttribute(n);else for(var a=0;a&lt;i;a++)t[a].setAttribute(n,u)}}return function(r){var i=e(r);null==i?t.removeAttribute(n):t.setAttribute(n,i)}}(e,r,f,a):null}function V(n,e,r,i){if(!i||&quot;object&quot;!==t(i))return null;var u=null,o=null;return Array.isArray(i)?o=function(t){if(!t||!t.length)return null;for(var n=0;n&lt;t.length;n++)t[n].e&amp;&amp;(t[n].e=F(t[n].e));return t.sort(N)}(i):(o=i.keys,u=i.data||null),o?q(n,e,r,o,u):null}function L(t,n,e){if(!e)return null;var r=[];for(var i in e)if(e.hasOwnProperty(i)){var u=V(t,n,i,e[i]);u&amp;&amp;r.push(u)}return r.length?r:null}function z(t,n){if(!n.duration||n.duration&lt;0)return null;var e=function(t,n){if(!n)return null;var e=[];if(Array.isArray(n))for(var r=n.length,i=0;i&lt;r;i++){var u=n[i];if(2===u.length){var o=null;if(&quot;string&quot;==typeof u[0])o=t.getElementById(u[0]);else if(Array.isArray(u[0])){o=[];for(var a=0;a&lt;u[0].length;a++)if(&quot;string&quot;==typeof u[0][a]){var l=t.getElementById(u[0][a]);l&amp;&amp;o.push(l)}o=o.length?1===o.length?o[0]:new I(o):null}if(o){var s=L(t,o,u[1]);s&amp;&amp;(e=e.concat(s))}}}else for(var f in n)if(n.hasOwnProperty(f)){var c=t.getElementById(f);if(c){var h=L(t,c,n[f]);h&amp;&amp;(e=e.concat(h))}}return e.length?e:null}(t,n.elements);return e?function(t,n){var e=arguments.length&gt;2&amp;&amp;void 0!==arguments[2]?arguments[2]:1/0,r=arguments.length&gt;3&amp;&amp;void 0!==arguments[3]?arguments[3]:1,i=arguments.length&gt;4&amp;&amp;void 0!==arguments[4]&amp;&amp;arguments[4],u=arguments.length&gt;5&amp;&amp;void 0!==arguments[5]?arguments[5]:1,o=t.length,a=r&gt;0?n:0;i&amp;&amp;e%2==0&amp;&amp;(a=n-a);var l=null;return function(s,f){var c=s%n,h=1+(s-c)/n;f*=r,i&amp;&amp;h%2==0&amp;&amp;(f=-f);var v=!1;if(h&gt;e)c=a,v=!0,-1===u&amp;&amp;(c=r&gt;0?0:n);else if(f&lt;0&amp;&amp;(c=n-c),c===l)return!1;l=c;for(var d=0;d&lt;o;d++)t[d](c);return v}}(e,n.duration,n.iterations||1/0,n.direction||1,!!n.alternate,n.fill||1):null}var D=function(){function t(e,r){var i=arguments.length&gt;2&amp;&amp;void 0!==arguments[2]?arguments[2]:{};n(this,t),this._id=0,this._running=!1,this._rollingBack=!1,this._animations=e,this.duration=r.duration,this.alternate=r.alternate,this.fill=r.fill,this.iterations=r.iterations,this.direction=i.direction||1,this.speed=i.speed||1,this.fps=i.fps||100,this.offset=i.offset||0,this.rollbackStartOffset=0}return r(t,[{key:&quot;_rollback&quot;,value:function(){var t=this,n=1/0,e=null;this.rollbackStartOffset=this.offset,this._rollingBack||(this._rollingBack=!0,this._running=!0);this._id=window.requestAnimationFrame((function r(i){if(t._rollingBack){null==e&amp;&amp;(e=i);var u=i-e,o=t.rollbackStartOffset-u,a=Math.round(o*t.speed);if(a&gt;t.duration&amp;&amp;n!=1/0){var l=!!t.alternate&amp;&amp;a/t.duration%2&gt;1,s=a%t.duration;a=(s+=l?t.duration:0)||t.duration}var f=t.fps?1e3/t.fps:0,c=Math.max(0,a);if(c&lt;n-f){t.offset=c,n=c;for(var h=t._animations,v=h.length,d=0;d&lt;v;d++)h[d](c,t.direction)}var y=!1;if(t.iterations&gt;0&amp;&amp;-1===t.fill){var g=t.iterations*t.duration,p=g==a;a=p?0:a,t.offset=p?0:t.offset,y=a&gt;g}a&gt;0&amp;&amp;t.offset&gt;=a&amp;&amp;!y?t._id=window.requestAnimationFrame(r):t.stop()}}))}},{key:&quot;_start&quot;,value:function(){var t=this,n=arguments.length&gt;0&amp;&amp;void 0!==arguments[0]?arguments[0]:0,e=-1/0,r=null,i={},u=function u(o){t._running=!0,null==r&amp;&amp;(r=o);var a=Math.round((o-r+n)*t.speed),l=t.fps?1e3/t.fps:0;if(a&gt;e+l&amp;&amp;!t._rollingBack){t.offset=a,e=a;for(var s=t._animations,f=s.length,c=0,h=0;h&lt;f;h++)i[h]?c++:(i[h]=s[h](a,t.direction),i[h]&amp;&amp;c++);if(c===f)return void t._stop()}t._id=window.requestAnimationFrame(u)};this._id=window.requestAnimationFrame(u)}},{key:&quot;_stop&quot;,value:function(){this._id&amp;&amp;window.cancelAnimationFrame(this._id),this._running=!1,this._rollingBack=!1}},{key:&quot;play&quot;,value:function(){!this._rollingBack&amp;&amp;this._running||(this._rollingBack=!1,this.rollbackStartOffset&gt;this.duration&amp;&amp;(this.offset=this.rollbackStartOffset-(this.rollbackStartOffset-this.offset)%this.duration,this.rollbackStartOffset=0),this._start(this.offset))}},{key:&quot;stop&quot;,value:function(){this._stop(),this.offset=0,this.rollbackStartOffset=0;var t=this.direction,n=this._animations;window.requestAnimationFrame((function(){for(var e=0;e&lt;n.length;e++)n[e](0,t)}))}},{key:&quot;reachedToEnd&quot;,value:function(){return this.iterations&gt;0&amp;&amp;this.offset&gt;=this.iterations*this.duration}},{key:&quot;restart&quot;,value:function(){this._stop(),this.offset=0,this._start()}},{key:&quot;pause&quot;,value:function(){this._stop()}},{key:&quot;reverse&quot;,value:function(){this.direction=-this.direction}}],[{key:&quot;build&quot;,value:function(n,e){return(n=function(t,n){if(B=n,!t||!t.root||!Array.isArray(t.animations))return null;for(var e=document.getElementsByTagName(&quot;svg&quot;),r=!1,i=0;i&lt;e.length;i++)if(e[i].id===t.root&amp;&amp;!e[i].svgatorAnimation){(r=e[i]).svgatorAnimation=!0;break}if(!r)return null;var u=t.animations.map((function(t){return z(r,t)})).filter((function(t){return!!t}));return u.length?{element:r,animations:u,animationSettings:t.animationSettings,options:t.options||void 0}:null}(n,e))?{el:n.element,options:n.options||{},player:new t(n.animations,n.animationSettings,n.options)}:null}}]),t}();!function(){for(var t=0,n=[&quot;ms&quot;,&quot;moz&quot;,&quot;webkit&quot;,&quot;o&quot;],e=0;e&lt;n.length&amp;&amp;!window.requestAnimationFrame;++e)window.requestAnimationFrame=window[n[e]+&quot;RequestAnimationFrame&quot;],window.cancelAnimationFrame=window[n[e]+&quot;CancelAnimationFrame&quot;]||window[n[e]+&quot;CancelRequestAnimationFrame&quot;];window.requestAnimationFrame||(window.requestAnimationFrame=function(n){var e=Date.now(),r=Math.max(0,16-(e-t)),i=window.setTimeout((function(){n(e+r)}),r);return t=e+r,i},window.cancelAnimationFrame=window.clearTimeout)}();var U=function(t,n){var e=!1,r=null;return function(i){e&amp;&amp;clearTimeout(e),e=setTimeout((function(){return function(){for(var i=0,u=window.innerHeight,o=0,a=window.innerWidth,l=t.parentNode;l instanceof Element;){var s=window.getComputedStyle(l);if(&quot;visible&quot;!==s.overflowY||&quot;visible&quot;!==s.overflowX){var f=l.getBoundingClientRect();&quot;visible&quot;!==s.overflowY&amp;&amp;(i=Math.max(i,f.top),u=Math.min(u,f.bottom)),&quot;visible&quot;!==s.overflowX&amp;&amp;(o=Math.max(o,f.left),a=Math.min(a,f.right))}if(l===l.parentNode)break;l=l.parentNode}e=!1;var c=t.getBoundingClientRect(),h=Math.min(c.height,Math.max(0,i-c.top)),v=Math.min(c.height,Math.max(0,c.bottom-u)),d=Math.min(c.width,Math.max(0,o-c.left)),y=Math.min(c.width,Math.max(0,c.right-a)),g=(c.height-h-v)/c.height,p=(c.width-d-y)/c.width,m=Math.round(g*p*100);null!==r&amp;&amp;r===m||(r=m,n(m))}()}),100)}},W=function(){function t(e,r,i){n(this,t),r=Math.max(1,r||1),r=Math.min(r,100),this.el=e,this.onTresholdChange=i&amp;&amp;i.call?i:function(){},this.tresholdPercent=r||1,this.currentVisibility=null,this.visibilityCalculator=U(e,this.onVisibilityUpdate.bind(this)),this.bindScrollWatchers(),this.visibilityCalculator()}return r(t,[{key:&quot;bindScrollWatchers&quot;,value:function(){for(var t=this.el.parentNode;t&amp;&amp;(t.addEventListener(&quot;scroll&quot;,this.visibilityCalculator),t!==t.parentNode&amp;&amp;t!==document);)t=t.parentNode}},{key:&quot;onVisibilityUpdate&quot;,value:function(t){var n=this.currentVisibility&gt;=this.tresholdPercent,e=t&gt;=this.tresholdPercent;if(null===this.currentVisibility||n!==e)return this.currentVisibility=t,void this.onTresholdChange(e);this.currentVisibility=t}}]),t}(),Y=/\.0+$/g;function G(t){return Number.isInteger(t)?t+&quot;&quot;:t.toFixed(6).replace(Y,&quot;&quot;)}function H(t){var n=arguments.length&gt;1&amp;&amp;void 0!==arguments[1]?arguments[1]:&quot; &quot;;return t&amp;&amp;t.length?t.map(G).join(n):&quot;&quot;}function Q(t){return G(t.x)+&quot;,&quot;+G(t.y)}function X(t){return t?null==t.a||t.a&gt;=1?&quot;rgb(&quot;+t.r+&quot;,&quot;+t.g+&quot;,&quot;+t.b+&quot;)&quot;:&quot;rgba(&quot;+t.r+&quot;,&quot;+t.g+&quot;,&quot;+t.b+&quot;,&quot;+t.a+&quot;)&quot;:&quot;transparent&quot;}var $={f:null,i:A,u:function(t,n){return function(e){var r=n(e);t.setAttribute(&quot;rx&quot;,G(r.x)),t.setAttribute(&quot;ry&quot;,G(r.y))}}},Z={f:null,i:function(t,n,e){return 0===t?n:1===t?e:{width:w(t,n.width,e.width),height:w(t,n.height,e.height)}},u:function(t,n){return function(e){var r=n(e);t.setAttribute(&quot;width&quot;,G(r.width)),t.setAttribute(&quot;height&quot;,G(r.height))}}},J=Math.sin,K=Math.cos,tt=Math.acos,nt=Math.asin,et=Math.tan,rt=Math.atan2,it=Math.PI/180,ut=180/Math.PI,ot=Math.sqrt,at=function(){function t(){var e=arguments.length&gt;0&amp;&amp;void 0!==arguments[0]?arguments[0]:1,r=arguments.length&gt;1&amp;&amp;void 0!==arguments[1]?arguments[1]:0,i=arguments.length&gt;2&amp;&amp;void 0!==arguments[2]?arguments[2]:0,u=arguments.length&gt;3&amp;&amp;void 0!==arguments[3]?arguments[3]:1,o=arguments.length&gt;4&amp;&amp;void 0!==arguments[4]?arguments[4]:0,a=arguments.length&gt;5&amp;&amp;void 0!==arguments[5]?arguments[5]:0;n(this,t),this.m=[e,r,i,u,o,a],this.i=null,this.w=null,this.s=null}return r(t,[{key:&quot;determinant&quot;,get:function(){var t=this.m;return t[0]*t[3]-t[1]*t[2]}},{key:&quot;isIdentity&quot;,get:function(){if(null===this.i){var t=this.m;this.i=1===t[0]&amp;&amp;0===t[1]&amp;&amp;0===t[2]&amp;&amp;1===t[3]&amp;&amp;0===t[4]&amp;&amp;0===t[5]}return this.i}},{key:&quot;point&quot;,value:function(t,n){var e=this.m;return{x:e[0]*t+e[2]*n+e[4],y:e[1]*t+e[3]*n+e[5]}}},{key:&quot;translateSelf&quot;,value:function(){var t=arguments.length&gt;0&amp;&amp;void 0!==arguments[0]?arguments[0]:0,n=arguments.length&gt;1&amp;&amp;void 0!==arguments[1]?arguments[1]:0;if(!t&amp;&amp;!n)return this;var e=this.m;return e[4]+=e[0]*t+e[2]*n,e[5]+=e[1]*t+e[3]*n,this.w=this.s=this.i=null,this}},{key:&quot;rotateSelf&quot;,value:function(){var t=arguments.length&gt;0&amp;&amp;void 0!==arguments[0]?arguments[0]:0;if(t%=360){var n=J(t*=it),e=K(t),r=this.m,i=r[0],u=r[1];r[0]=i*e+r[2]*n,r[1]=u*e+r[3]*n,r[2]=r[2]*e-i*n,r[3]=r[3]*e-u*n,this.w=this.s=this.i=null}return this}},{key:&quot;scaleSelf&quot;,value:function(){var t=arguments.length&gt;0&amp;&amp;void 0!==arguments[0]?arguments[0]:1,n=arguments.length&gt;1&amp;&amp;void 0!==arguments[1]?arguments[1]:1;if(1!==t||1!==n){var e=this.m;e[0]*=t,e[1]*=t,e[2]*=n,e[3]*=n,this.w=this.s=this.i=null}return this}},{key:&quot;skewSelf&quot;,value:function(t,n){if(n%=360,(t%=360)||n){var e=this.m,r=e[0],i=e[1],u=e[2],o=e[3];t&amp;&amp;(t=et(t*it),e[2]+=r*t,e[3]+=i*t),n&amp;&amp;(n=et(n*it),e[0]+=u*n,e[1]+=o*n),this.w=this.s=this.i=null}return this}},{key:&quot;resetSelf&quot;,value:function(){var t=arguments.length&gt;0&amp;&amp;void 0!==arguments[0]?arguments[0]:1,n=arguments.length&gt;1&amp;&amp;void 0!==arguments[1]?arguments[1]:0,e=arguments.length&gt;2&amp;&amp;void 0!==arguments[2]?arguments[2]:0,r=arguments.length&gt;3&amp;&amp;void 0!==arguments[3]?arguments[3]:1,i=arguments.length&gt;4&amp;&amp;void 0!==arguments[4]?arguments[4]:0,u=arguments.length&gt;5&amp;&amp;void 0!==arguments[5]?arguments[5]:0,o=this.m;return o[0]=t,o[1]=n,o[2]=e,o[3]=r,o[4]=i,o[5]=u,this.w=this.s=this.i=null,this}},{key:&quot;recomposeSelf&quot;,value:function(){var t=arguments.length&gt;0&amp;&amp;void 0!==arguments[0]?arguments[0]:null,n=arguments.length&gt;1&amp;&amp;void 0!==arguments[1]?arguments[1]:null,e=arguments.length&gt;2&amp;&amp;void 0!==arguments[2]?arguments[2]:null,r=arguments.length&gt;3&amp;&amp;void 0!==arguments[3]?arguments[3]:null,i=arguments.length&gt;4&amp;&amp;void 0!==arguments[4]?arguments[4]:null;return this.isIdentity||this.resetSelf(),t&amp;&amp;(t.x||t.y)&amp;&amp;this.translateSelf(t.x,t.y),n&amp;&amp;this.rotateSelf(n),e&amp;&amp;(e.x&amp;&amp;this.skewSelf(e.x,0),e.y&amp;&amp;this.skewSelf(0,e.y)),!r||1===r.x&amp;&amp;1===r.y||this.scaleSelf(r.x,r.y),i&amp;&amp;(i.x||i.y)&amp;&amp;this.translateSelf(i.x,i.y),this}},{key:&quot;decompose&quot;,value:function(){var t=arguments.length&gt;0&amp;&amp;void 0!==arguments[0]?arguments[0]:0,n=arguments.length&gt;1&amp;&amp;void 0!==arguments[1]?arguments[1]:0,e=this.m,r=e[0]*e[0]+e[1]*e[1],i=[[e[0],e[1]],[e[2],e[3]]],u=ot(r);if(0===u)return{origin:{x:e[4],y:e[5]},translate:{x:t,y:n},scale:{x:0,y:0},skew:{x:0,y:0},rotate:0};i[0][0]/=u,i[0][1]/=u;var o=e[0]*e[3]-e[1]*e[2]&lt;0;o&amp;&amp;(u=-u);var a=i[0][0]*i[1][0]+i[0][1]*i[1][1];i[1][0]-=i[0][0]*a,i[1][1]-=i[0][1]*a;var l=ot(i[1][0]*i[1][0]+i[1][1]*i[1][1]);if(0===l)return{origin:{x:e[4],y:e[5]},translate:{x:t,y:n},scale:{x:u,y:0},skew:{x:0,y:0},rotate:0};i[1][0]/=l,i[1][1]/=l,a/=l;var s=0;return i[1][1]&lt;0?(s=tt(i[1][1])*ut,i[0][1]&lt;0&amp;&amp;(s=360-s)):s=nt(i[0][1])*ut,o&amp;&amp;(s=-s),a=rt(a,ot(i[0][0]*i[0][0]+i[0][1]*i[0][1]))*ut,o&amp;&amp;(a=-a),{origin:{x:e[4],y:e[5]},translate:{x:t,y:n},scale:{x:u,y:l},skew:{x:a,y:0},rotate:s}}},{key:&quot;toString&quot;,value:function(){return null===this.s&amp;&amp;(this.s=&quot;matrix(&quot;+this.m.map(st).join(&quot; &quot;)+&quot;)&quot;),this.s}}]),t}(),lt=/\.0+$/;function st(t){return Number.isInteger(t)?t:t.toFixed(14).replace(lt,&quot;&quot;)}function ft(t,n,e){return t+(n-t)*e}function ct(t,n,e){var r=arguments.length&gt;3&amp;&amp;void 0!==arguments[3]&amp;&amp;arguments[3],i={x:ft(t.x,n.x,e),y:ft(t.y,n.y,e)};return r&amp;&amp;(i.a=ht(t,n)),i}function ht(t,n){return Math.atan2(n.y-t.y,n.x-t.x)}Object.freeze({M:2,L:2,Z:0,H:1,V:1,C:6,Q:4,T:2,S:4,A:7});var vt={},dt=null;function yt(n){var e=function(){if(dt)return dt;if(&quot;object&quot;!==(&quot;undefined&quot;==typeof document?&quot;undefined&quot;:t(document)))return{};var n=document.createElementNS(&quot;http://www.w3.org/2000/svg&quot;,&quot;svg&quot;);return n.style.position=&quot;absolute&quot;,n.style.opacity=&quot;0.01&quot;,n.style.zIndex=&quot;-9999&quot;,n.style.left=&quot;-9999px&quot;,n.style.width=&quot;1px&quot;,n.style.height=&quot;1px&quot;,dt={svg:n}}().svg;if(!e)return function(t){return null};var r=document.createElementNS(e.namespaceURI,&quot;path&quot;);r.setAttributeNS(null,&quot;d&quot;,n),r.setAttributeNS(null,&quot;fill&quot;,&quot;none&quot;),r.setAttributeNS(null,&quot;stroke&quot;,&quot;none&quot;),e.appendChild(r);var i=r.getTotalLength();return function(t){var n=r.getPointAtLength(i*t);return{x:n.x,y:n.y}}}function gt(t){return vt[t]?vt[t]:vt[t]=yt(t)}function pt(t,n,e,r){if(!t||!r)return!1;var i=[&quot;M&quot;,t.x,t.y];if(n&amp;&amp;e&amp;&amp;(i.push(&quot;C&quot;),i.push(n.x),i.push(n.y),i.push(e.x),i.push(e.y)),n?!e:e){var u=n||e;i.push(&quot;Q&quot;),i.push(u.x),i.push(u.y)}return n||e||i.push(&quot;L&quot;),i.push(r.x),i.push(r.y),i.join(&quot; &quot;)}function mt(t,n,e,r){var i=arguments.length&gt;4&amp;&amp;void 0!==arguments[4]?arguments[4]:1,u=pt(t,n,e,r),o=gt(u);try{return o(i)}catch(t){return null}}function bt(t,n,e,r){var i=1-r;return i*i*t+2*i*r*n+r*r*e}function wt(t,n,e,r){return 2*(1-r)*(n-t)+2*r*(e-n)}function xt(t,n,e,r){var i=arguments.length&gt;4&amp;&amp;void 0!==arguments[4]&amp;&amp;arguments[4],u=mt(t,n,null,e,r);return u||(u={x:bt(t.x,n.x,e.x,r),y:bt(t.y,n.y,e.y,r)}),i&amp;&amp;(u.a=At(t,n,e,r)),u}function At(t,n,e,r){return Math.atan2(wt(t.y,n.y,e.y,r),wt(t.x,n.x,e.x,r))}function kt(t,n,e,r,i){var u=i*i;return i*u*(r-t+3*(n-e))+3*u*(t+e-2*n)+3*i*(n-t)+t}function _t(t,n,e,r,i){var u=1-i;return 3*(u*u*(n-t)+2*u*i*(e-n)+i*i*(r-e))}function St(t,n,e,r,i){var u=arguments.length&gt;5&amp;&amp;void 0!==arguments[5]&amp;&amp;arguments[5],o=mt(t,n,e,r,i);return o||(o={x:kt(t.x,n.x,e.x,r.x,i),y:kt(t.y,n.y,e.y,r.y,i)}),u&amp;&amp;(o.a=Mt(t,n,e,r,i)),o}function Mt(t,n,e,r,i){return Math.atan2(_t(t.y,n.y,e.y,r.y,i),_t(t.x,n.x,e.x,r.x,i))}function Ot(t,n,e){var r=arguments.length&gt;3&amp;&amp;void 0!==arguments[3]&amp;&amp;arguments[3];if(Bt(n)){if(It(e))return xt(n,e.start,e,t,r)}else if(Bt(e)){if(n.end)return xt(n,n.end,e,t,r)}else{if(n.end)return e.start?St(n,n.end,e.start,e,t,r):xt(n,n.end,e,t,r);if(e.start)return xt(n,e.start,e,t,r)}return ct(n,e,t,r)}function Et(t,n,e){var r=Ot(t,n,e,!0);return r.a=function(t){var n=arguments.length&gt;1&amp;&amp;void 0!==arguments[1]&amp;&amp;arguments[1];return n?t+Math.PI:t}(r.a)/p,r}function Bt(t){return!t.type||&quot;corner&quot;===t.type}function It(t){return null!=t.start&amp;&amp;!Bt(t)}var jt=new at;var Pt={f:function(t){return t?t.join(&quot; &quot;):&quot;&quot;},i:function(n,e,r){if(0===n)return e;if(1===n)return r;var i=e.length;if(i!==r.length)return m(n,e,r);for(var u,o=new Array(i),a=0;a&lt;i;a++){if((u=t(e[a]))!==t(r[a]))return m(n,e,r);if(&quot;number&quot;===u)o[a]=b(n,e[a],r[a]);else{if(e[a]!==r[a])return m(n,e,r);o[a]=e[a]}}return o}},Tt={f:null,i:M,u:function(t,n){return function(e){var r=n(e);t.setAttribute(&quot;x1&quot;,G(r[0])),t.setAttribute(&quot;y1&quot;,G(r[1])),t.setAttribute(&quot;x2&quot;,G(r[2])),t.setAttribute(&quot;y2&quot;,G(r[3]))}}},Ft={f:G,i:b},Rt={f:G,i:function(t,n,e){var r=b(t,n,e);return r&lt;=0?0:r&gt;=1?1:r}},Ct={f:function(t){var n=arguments.length&gt;1&amp;&amp;void 0!==arguments[1]?arguments[1]:&quot; &quot;;return t&amp;&amp;t.length&gt;0&amp;&amp;(t=t.map((function(t){return Math.floor(1e4*t)/1e4}))),H(t,n)},i:function(t,n,e){var r,i,u,o=n.length,a=e.length;if(o!==a)if(0===o)n=O(o=a,0);else if(0===a)a=o,e=O(o,0);else{var l=(u=(r=o)*(i=a)/function(t,n){for(var e;n;)e=n,n=t%n,t=e;return t||1}(r,i))&lt;0?-u:u;n=E(n,Math.floor(l/o)),e=E(e,Math.floor(l/a)),o=a=l}for(var s=[],f=0;f&lt;o;f++)s.push(g(w(t,n[f],e[f]),6));return s}};function Nt(t,n,e,r,i,u,o,a){return n=function(t,n,e){for(var r,i,u,o=t.length-1,a={},l=0;l&lt;=o;l++)(r=t[l]).e&amp;&amp;(r.e=n(r.e)),r.v&amp;&amp;&quot;g&quot;===(i=r.v).t&amp;&amp;i.r&amp;&amp;(u=e.getElementById(i.r))&amp;&amp;(a[i.r]=u.querySelectorAll(&quot;stop&quot;));return a}(t,r,a),function(r){var i,u=e(r,t,qt);return u?&quot;c&quot;===u.t?X(u.v):&quot;g&quot;===u.t?(n[u.r]&amp;&amp;function(t,n){for(var e=0,r=t.length;e&lt;r;e++)t[e].setAttribute(&quot;stop-color&quot;,X(n[e]))}(n[u.r],u.v),(i=u.r)?&quot;url(#&quot;+i+&quot;)&quot;:&quot;none&quot;):&quot;none&quot;:&quot;none&quot;}}function qt(t,n,e){if(0===t)return n;if(1===t)return e;if(n&amp;&amp;e){var r=n.t;if(r===e.t)switch(n.t){case&quot;c&quot;:return{t:r,v:_(t,n.v,e.v)};case&quot;g&quot;:if(n.r===e.r)return{t:r,v:S(t,n.v,e.v),r:n.r}}}return m(t,n,e)}var Vt={blur:A,brightness:w,contrast:w,&quot;drop-shadow&quot;:function(t,n,e){return 0===t?n:1===t?e:{blur:A(t,n.blur,e.blur),offset:x(t,n.offset,e.offset),color:_(t,n.color,e.color)}},grayscale:w,&quot;hue-rotate&quot;:b,invert:w,opacity:w,saturate:w,sepia:w};function Lt(t,n,e){if(0===t)return n;if(1===t)return e;var r=n.length;if(r!==e.length)return m(t,n,e);for(var i,u=[],o=0;o&lt;r;o++){if(n[o].type!==e[o].type)return n;if(!(i=Vt[n[o].type]))return m(t,n,e);u.push({type:n.type,value:i(t,n[o].value,e[o].value)})}return u}var zt={blur:function(t){return t?function(n){t.setAttribute(&quot;stdDeviation&quot;,Q(n))}:null},brightness:function(t,n,e){return(t=Ut(e,n))?function(n){n=G(n),t.map((function(t){return t.setAttribute(&quot;slope&quot;,n)}))}:null},contrast:function(t,n,e){return(t=Ut(e,n))?function(n){var e=G((1-n)/2);n=G(n),t.map((function(t){t.setAttribute(&quot;slope&quot;,n),t.setAttribute(&quot;intercept&quot;,e)}))}:null},&quot;drop-shadow&quot;:function(t,n,e){var r=e.getElementById(n+&quot;-blur&quot;);if(!r)return null;var i=e.getElementById(n+&quot;-offset&quot;);if(!i)return null;var u=e.getElementById(n+&quot;-flood&quot;);return u?function(t){r.setAttribute(&quot;stdDeviation&quot;,Q(t.blur)),i.setAttribute(&quot;dx&quot;,G(t.offset.x)),i.setAttribute(&quot;dy&quot;,G(t.offset.y)),u.setAttribute(&quot;flood-color&quot;,X(t.color))}:null},grayscale:function(t){return t?function(n){t.setAttribute(&quot;values&quot;,H(function(t){return[.2126+.7874*(t=1-t),.7152-.7152*t,.0722-.0722*t,0,0,.2126-.2126*t,.7152+.2848*t,.0722-.0722*t,0,0,.2126-.2126*t,.7152-.7152*t,.0722+.9278*t,0,0,0,0,0,1,0]}(n)))}:null},&quot;hue-rotate&quot;:function(t){return t?function(n){return t.setAttribute(&quot;values&quot;,G(n))}:null},invert:function(t,n,e){return(t=Ut(e,n))?function(n){n=G(n)+&quot; &quot;+G(1-n),t.map((function(t){return t.setAttribute(&quot;tableValues&quot;,n)}))}:null},opacity:function(t,n,e){return(t=e.getElementById(n+&quot;-A&quot;))?function(n){return t.setAttribute(&quot;tableValues&quot;,&quot;0 &quot;+G(n))}:null},saturate:function(t){return t?function(n){return t.setAttribute(&quot;values&quot;,G(n))}:null},sepia:function(t){return t?function(n){return t.setAttribute(&quot;values&quot;,H(function(t){return[.393+.607*(t=1-t),.769-.769*t,.189-.189*t,0,0,.349-.349*t,.686+.314*t,.168-.168*t,0,0,.272-.272*t,.534-.534*t,.131+.869*t,0,0,0,0,0,1,0]}(n)))}:null}};var Dt=[&quot;R&quot;,&quot;G&quot;,&quot;B&quot;];function Ut(t,n){var e=Dt.map((function(e){return t.getElementById(n+&quot;-&quot;+e)||null}));return-1!==e.indexOf(null)?null:e}var Wt={fill:Nt,&quot;fill-opacity&quot;:Rt,stroke:Nt,&quot;stroke-opacity&quot;:Rt,&quot;stroke-width&quot;:Ft,&quot;stroke-dashoffset&quot;:{f:G,i:b},&quot;stroke-dasharray&quot;:Ct,opacity:Rt,transform:function(n,e,r,i){if(!(n=function(n,e){if(!n||&quot;object&quot;!==t(n))return null;var r=!1;for(var i in n)n.hasOwnProperty(i)&amp;&amp;(n[i]&amp;&amp;n[i].length?(n[i].forEach((function(t){t.e&amp;&amp;(t.e=e(t.e))})),r=!0):delete n[i]);return r?n:null}(n,i)))return null;var u=function(t,i,u){var o=arguments.length&gt;3&amp;&amp;void 0!==arguments[3]?arguments[3]:null;return n[t]?r(i,n[t],u):e&amp;&amp;e[t]?e[t]:o};return e&amp;&amp;e.a&amp;&amp;n.o?function(t){var e=r(t,n.o,Et);return jt.recomposeSelf(e,u(&quot;r&quot;,t,b,0)+e.a,u(&quot;k&quot;,t,x),u(&quot;s&quot;,t,x),u(&quot;t&quot;,t,x)).toString()}:function(t){return jt.recomposeSelf(u(&quot;o&quot;,t,Ot,null),u(&quot;r&quot;,t,b,0),u(&quot;k&quot;,t,x),u(&quot;s&quot;,t,x),u(&quot;t&quot;,t,x)).toString()}},&quot;#filter&quot;:function(t,n,e,r,i,u,o,a){if(!n.items||!t||!t.length)return null;var l=function(t,n){var e=(t=t.map((function(t){return t&amp;&amp;zt[t[0]]?(n.getElementById(t[1]),zt[t[0]](n.getElementById(t[1]),t[1],n)):null}))).length;return function(n){for(var r=0;r&lt;e;r++)t[r]&amp;&amp;t[r](n[r].value)}}(n.items,a);return l?(t=function(t,n){return t.map((function(t){return t.e=n(t.e),t}))}(t,r),function(n){l(e(n,t,Lt))}):null},&quot;#line&quot;:Tt,points:{f:H,i:M},d:Pt,r:Ft,&quot;#size&quot;:Z,&quot;#radius&quot;:$,_:function(t,n){if(Array.isArray(t))for(var e=0;e&lt;t.length;e++)this[t[e]]=n;else this[t]=n}};return function(t){!function(t,n){if(&quot;function&quot;!=typeof n&amp;&amp;null!==n)throw new TypeError(&quot;Super expression must either be null or a function&quot;);t.prototype=Object.create(n&amp;&amp;n.prototype,{constructor:{value:t,writable:!0,configurable:!0}}),n&amp;&amp;u(t,n)}(o,t);var e=a(o);function o(){return n(this,o),e.apply(this,arguments)}return r(o,null,[{key:&quot;build&quot;,value:function(t){var n=l(i(o),&quot;build&quot;,this).call(this,t,Wt),e=n.el,r=n.options,u=n.player;return function(t,n,e){if(&quot;click&quot;===e.start){return void n.addEventListener(&quot;click&quot;,(function(){switch(e.click){case&quot;freeze&quot;:return!t._running&amp;&amp;t.reachedToEnd()&amp;&amp;(t.offset=0),t._running?t.pause():t.play();case&quot;restart&quot;:return t.offset&gt;0?t.restart():t.play();case&quot;reverse&quot;:var n=!t._rollingBack&amp;&amp;t._running,r=t.reachedToEnd();return n||r&amp;&amp;1===t.fill?(t.pause(),r&amp;&amp;(t.offset=t.duration-1),t._rollback()):r?t.restart():t.play();case&quot;none&quot;:default:return!t._running&amp;&amp;t.offset?t.restart():t.play()}}))}if(&quot;hover&quot;===e.start)return n.addEventListener(&quot;mouseenter&quot;,(function(){return t.reachedToEnd()?t.restart():t.play()})),void n.addEventListener(&quot;mouseleave&quot;,(function(){switch(e.hover){case&quot;freeze&quot;:return t.pause();case&quot;reset&quot;:return t.stop();case&quot;reverse&quot;:return t.pause(),t._rollback();case&quot;none&quot;:default:return}}));if(&quot;scroll&quot;===e.start)return void new W(n,e.scroll||25,(function(n){n?t.reachedToEnd()?t.restart():t.play():t.pause()}));t.play()}(u,e,r),u}}]),o}(D)})); __SVGATOR_PLAYER__.build({&quot;root&quot;:&quot;e55j8ismfaro1&quot;,&quot;animations&quot;:[{&quot;duration&quot;:2000,&quot;direction&quot;:1,&quot;iterations&quot;:1,&quot;fill&quot;:1,&quot;alternate&quot;:false,&quot;elements&quot;:{&quot;e55j8ismfaro14&quot;:{&quot;transform&quot;:{&quot;data&quot;:{&quot;o&quot;:{&quot;x&quot;:52.999999999999915,&quot;y&quot;:158.26400000000004,&quot;type&quot;:&quot;corner&quot;},&quot;t&quot;:{&quot;x&quot;:-22,&quot;y&quot;:-164.9999999999999}},&quot;keys&quot;:{&quot;s&quot;:[{&quot;t&quot;:600,&quot;v&quot;:{&quot;x&quot;:1,&quot;y&quot;:-0.000046648786225591824},&quot;e&quot;:[0.39,0.575,0.565,1]},{&quot;t&quot;:1200,&quot;v&quot;:{&quot;x&quot;:1,&quot;y&quot;:1},&quot;e&quot;:[0.39,0.575,0.565,1]},{&quot;t&quot;:1500,&quot;v&quot;:{&quot;x&quot;:1,&quot;y&quot;:1.1659344844621842},&quot;e&quot;:[0.47,0,0.745,0.715]},{&quot;t&quot;:2000,&quot;v&quot;:{&quot;x&quot;:1,&quot;y&quot;:1.0059370006906416},&quot;e&quot;:[0.47,0,0.745,0.715]}]}}},&quot;e55j8ismfaro15&quot;:{&quot;transform&quot;:{&quot;data&quot;:{&quot;o&quot;:{&quot;x&quot;:88.99999999999991,&quot;y&quot;:157.18159626000002,&quot;type&quot;:&quot;corner&quot;},&quot;t&quot;:{&quot;x&quot;:-22,&quot;y&quot;:-198.91759625999987}},&quot;keys&quot;:{&quot;s&quot;:[{&quot;t&quot;:600,&quot;v&quot;:{&quot;x&quot;:1,&quot;y&quot;:0.00006149767555670432},&quot;e&quot;:[0.39,0.575,0.565,1]},{&quot;t&quot;:1200,&quot;v&quot;:{&quot;x&quot;:1,&quot;y&quot;:1},&quot;e&quot;:[0.39,0.575,0.565,1]},{&quot;t&quot;:1500,&quot;v&quot;:{&quot;x&quot;:1,&quot;y&quot;:0.8992063001020981},&quot;e&quot;:[0.47,0,0.745,0.715]},{&quot;t&quot;:2000,&quot;v&quot;:{&quot;x&quot;:1,&quot;y&quot;:0.990289567016791},&quot;e&quot;:[0.47,0,0.745,0.715]}]}}},&quot;e55j8ismfaro16&quot;:{&quot;transform&quot;:{&quot;data&quot;:{&quot;o&quot;:{&quot;x&quot;:125.99999999999989,&quot;y&quot;:158.26400000000004,&quot;type&quot;:&quot;corner&quot;},&quot;t&quot;:{&quot;x&quot;:-22,&quot;y&quot;:-108.9999999999999}},&quot;keys&quot;:{&quot;s&quot;:[{&quot;t&quot;:600,&quot;v&quot;:{&quot;x&quot;:1,&quot;y&quot;:-0.0008228957296179028},&quot;e&quot;:[0.39,0.575,0.565,1]},{&quot;t&quot;:1200,&quot;v&quot;:{&quot;x&quot;:1,&quot;y&quot;:1},&quot;e&quot;:[0.39,0.575,0.565,1]},{&quot;t&quot;:1500,&quot;v&quot;:{&quot;x&quot;:1,&quot;y&quot;:1.3249944952641315},&quot;e&quot;:[0.47,0,0.745,0.715]},{&quot;t&quot;:2000,&quot;v&quot;:{&quot;x&quot;:1,&quot;y&quot;:0.9835520373292451},&quot;e&quot;:[0.47,0,0.745,0.715]}]}}},&quot;e55j8ismfaro17&quot;:{&quot;transform&quot;:{&quot;data&quot;:{&quot;o&quot;:{&quot;x&quot;:162.99999999999986,&quot;y&quot;:158.35369563000003,&quot;type&quot;:&quot;corner&quot;},&quot;t&quot;:{&quot;x&quot;:-21,&quot;y&quot;:-144.08969562999988}},&quot;keys&quot;:{&quot;s&quot;:[{&quot;t&quot;:600,&quot;v&quot;:{&quot;x&quot;:1,&quot;y&quot;:-0.00025164094053771734},&quot;e&quot;:[0.39,0.575,0.565,1]},{&quot;t&quot;:1200,&quot;v&quot;:{&quot;x&quot;:1,&quot;y&quot;:1},&quot;e&quot;:[0.39,0.575,0.565,1]},{&quot;t&quot;:1500,&quot;v&quot;:{&quot;x&quot;:1,&quot;y&quot;:0.7606782736659171},&quot;e&quot;:[0.47,0,0.745,0.715]},{&quot;t&quot;:2000,&quot;v&quot;:{&quot;x&quot;:1,&quot;y&quot;:1.0031265217080523},&quot;e&quot;:[0.47,0,0.745,0.715]}]}}},&quot;e55j8ismfaro18&quot;:{&quot;transform&quot;:{&quot;data&quot;:{&quot;o&quot;:{&quot;x&quot;:15.999999999999915,&quot;y&quot;:157.21898512000004,&quot;type&quot;:&quot;corner&quot;},&quot;t&quot;:{&quot;x&quot;:-22,&quot;y&quot;:-142.9549851199999}},&quot;keys&quot;:{&quot;s&quot;:[{&quot;t&quot;:600,&quot;v&quot;:{&quot;x&quot;:1,&quot;y&quot;:0.0002615428927213971},&quot;e&quot;:[0.39,0.575,0.565,1]},{&quot;t&quot;:1200,&quot;v&quot;:{&quot;x&quot;:1,&quot;y&quot;:1},&quot;e&quot;:[0.39,0.575,0.565,1]},{&quot;t&quot;:1500,&quot;v&quot;:{&quot;x&quot;:1,&quot;y&quot;:1.15898594193704},&quot;e&quot;:[0.47,0,0.745,0.715]},{&quot;t&quot;:2000,&quot;v&quot;:{&quot;x&quot;:1,&quot;y&quot;:0.9983835339624667},&quot;e&quot;:[0.47,0,0.745,0.715]}]}}},&quot;e55j8ismfaro19&quot;:{&quot;transform&quot;:{&quot;data&quot;:{&quot;o&quot;:{&quot;x&quot;:-19.170000000000073,&quot;y&quot;:158.26400000000004,&quot;type&quot;:&quot;corner&quot;},&quot;t&quot;:{&quot;x&quot;:-22,&quot;y&quot;:-72.34499999999991}},&quot;keys&quot;:{&quot;s&quot;:[{&quot;t&quot;:600,&quot;v&quot;:{&quot;x&quot;:1,&quot;y&quot;:0.01444488052969132},&quot;e&quot;:[0.39,0.575,0.565,1]},{&quot;t&quot;:1200,&quot;v&quot;:{&quot;x&quot;:1,&quot;y&quot;:1},&quot;e&quot;:[0.39,0.575,0.565,1]},{&quot;t&quot;:1500,&quot;v&quot;:{&quot;x&quot;:1,&quot;y&quot;:0.4822892216923684},&quot;e&quot;:[0.47,0,0.745,0.715]},{&quot;t&quot;:2000,&quot;v&quot;:{&quot;x&quot;:1,&quot;y&quot;:0.978100233429073},&quot;e&quot;:[0.47,0,0.745,0.715]}]}}},&quot;e55j8ismfaro21&quot;:{&quot;opacity&quot;:[{&quot;t&quot;:0,&quot;v&quot;:0},{&quot;t&quot;:400,&quot;v&quot;:1}]},&quot;e55j8ismfaro22&quot;:{&quot;transform&quot;:{&quot;keys&quot;:{&quot;o&quot;:[{&quot;t&quot;:200,&quot;v&quot;:{&quot;x&quot;:1047.140684273993,&quot;y&quot;:1322.376797983534,&quot;type&quot;:&quot;corner&quot;},&quot;e&quot;:[0.39,0.575,0.565,1]},{&quot;t&quot;:700,&quot;v&quot;:{&quot;x&quot;:960.5326842739929,&quot;y&quot;:1322.376797983534,&quot;type&quot;:&quot;corner&quot;},&quot;e&quot;:[0.39,0.575,0.565,1]}]}},&quot;opacity&quot;:[{&quot;t&quot;:200,&quot;v&quot;:0},{&quot;t&quot;:600,&quot;v&quot;:1}]},&quot;e55j8ismfaro23&quot;:{&quot;transform&quot;:{&quot;data&quot;:{&quot;t&quot;:{&quot;x&quot;:5,&quot;y&quot;:4.5}},&quot;keys&quot;:{&quot;o&quot;:[{&quot;t&quot;:200,&quot;v&quot;:{&quot;x&quot;:1027.140684273993,&quot;y&quot;:1311.376797983534,&quot;type&quot;:&quot;corner&quot;},&quot;e&quot;:[0.39,0.575,0.565,1]},{&quot;t&quot;:700,&quot;v&quot;:{&quot;x&quot;:940.5326842739929,&quot;y&quot;:1311.376797983534,&quot;type&quot;:&quot;corner&quot;},&quot;e&quot;:[0.39,0.575,0.565,1]}]}},&quot;opacity&quot;:[{&quot;t&quot;:200,&quot;v&quot;:0},{&quot;t&quot;:600,&quot;v&quot;:1}]},&quot;e55j8ismfaro24&quot;:{&quot;transform&quot;:{&quot;keys&quot;:{&quot;o&quot;:[{&quot;t&quot;:200,&quot;v&quot;:{&quot;x&quot;:1201.6080000000006,&quot;y&quot;:1322.1719089100006,&quot;type&quot;:&quot;corner&quot;},&quot;e&quot;:[0.39,0.575,0.565,1]},{&quot;t&quot;:700,&quot;v&quot;:{&quot;x&quot;:1115.0000000000002,&quot;y&quot;:1322.1719089100006,&quot;type&quot;:&quot;corner&quot;},&quot;e&quot;:[0.39,0.575,0.565,1]}]}},&quot;opacity&quot;:[{&quot;t&quot;:400,&quot;v&quot;:0},{&quot;t&quot;:700,&quot;v&quot;:1}]},&quot;e55j8ismfaro25&quot;:{&quot;transform&quot;:{&quot;keys&quot;:{&quot;o&quot;:[{&quot;t&quot;:200,&quot;v&quot;:{&quot;x&quot;:1046.6080000000002,&quot;y&quot;:1322.3700000000003,&quot;type&quot;:&quot;corner&quot;},&quot;e&quot;:[0.39,0.575,0.565,1]},{&quot;t&quot;:700,&quot;v&quot;:{&quot;x&quot;:960,&quot;y&quot;:1322.3700000000003,&quot;type&quot;:&quot;corner&quot;},&quot;e&quot;:[0.39,0.575,0.565,1]}]}},&quot;opacity&quot;:[{&quot;t&quot;:200,&quot;v&quot;:0},{&quot;t&quot;:600,&quot;v&quot;:1}]},&quot;e55j8ismfaro26&quot;:{&quot;transform&quot;:{&quot;data&quot;:{&quot;t&quot;:{&quot;x&quot;:4.5,&quot;y&quot;:4.5}},&quot;keys&quot;:{&quot;o&quot;:[{&quot;t&quot;:200,&quot;v&quot;:{&quot;x&quot;:1182.6080000000006,&quot;y&quot;:1311.3700000000003,&quot;type&quot;:&quot;corner&quot;},&quot;e&quot;:[0.39,0.575,0.565,1]},{&quot;t&quot;:700,&quot;v&quot;:{&quot;x&quot;:1096.0000000000002,&quot;y&quot;:1311.3700000000003,&quot;type&quot;:&quot;corner&quot;},&quot;e&quot;:[0.39,0.575,0.565,1]}]}},&quot;opacity&quot;:[{&quot;t&quot;:400,&quot;v&quot;:0},{&quot;t&quot;:700,&quot;v&quot;:1}]},&quot;e55j8ismfaro27&quot;:{&quot;transform&quot;:{&quot;keys&quot;:{&quot;o&quot;:[{&quot;t&quot;:200,&quot;v&quot;:{&quot;x&quot;:1201.6080000000006,&quot;y&quot;:1322.3700000000003,&quot;type&quot;:&quot;corner&quot;},&quot;e&quot;:[0.39,0.575,0.565,1]},{&quot;t&quot;:700,&quot;v&quot;:{&quot;x&quot;:1115.0000000000002,&quot;y&quot;:1322.3700000000003,&quot;type&quot;:&quot;corner&quot;},&quot;e&quot;:[0.39,0.575,0.565,1]}]}},&quot;opacity&quot;:[{&quot;t&quot;:400,&quot;v&quot;:0},{&quot;t&quot;:700,&quot;v&quot;:1}]}}}],&quot;options&quot;:{&quot;start&quot;:&quot;scroll&quot;,&quot;hover&quot;:&quot;freeze&quot;,&quot;click&quot;:&quot;freeze&quot;,&quot;scroll&quot;:40,&quot;font&quot;:&quot;embed&quot;,&quot;exportedIds&quot;:&quot;unique&quot;,&quot;title&quot;:&quot;graph&quot;},&quot;animationSettings&quot;:{&quot;duration&quot;:2000,&quot;direction&quot;:1,&quot;iterations&quot;:1,&quot;fill&quot;:1,&quot;alternate&quot;:false}})</script></svg>