<svg xmlns="http://www.w3.org/2000/svg" width="52.719" height="52.658" viewBox="0 0 52.719 52.658">
  <path id="Union_1" data-name="Union 1" d="M21287.193,22337.658v-8.672h3.145v8.672Zm4.9-8.918,3.018-.887,2.443,8.32-3.016.891Zm-12.107,7.422,2.443-8.324,3.016.885-2.443,8.326Zm16.738-9.037,2.646-1.7,4.691,7.293-2.65,1.7Zm-23.236,5.572,4.686-7.3,2.646,1.7-4.691,7.3Zm27.223-8.426,2.057-2.377,6.561,5.68-2.059,2.377Zm-32.48,3.264,6.553-5.68,2.063,2.377-6.559,5.68Zm35.5-7.125,1.307-2.859,7.893,3.6-1.307,2.859Zm-39.1.7,7.893-3.605,1.307,2.859-7.893,3.6Zm40.912-5.254.443-3.111,8.588,1.234-.449,3.111Zm-42.549-1.928,8.588-1.234.449,3.111-8.59,1.234Zm42.555-6.066,8.588-1.232.443,3.111-8.582,1.232Zm-42.545,1.828.443-3.111,8.588,1.232-.447,3.111Zm40.746-6.391,7.887-3.6,1.307,2.859-7.889,3.6Zm-39.1-.785,1.307-2.859,7.887,3.6-1.3,2.863Zm36.086-3.084,6.555-5.684,2.057,2.377-6.553,5.684Zm-32.48-3.342,2.057-2.377,6.555,5.68-2.059,2.377Zm28.506.477,4.688-7.293,2.646,1.7-4.693,7.293Zm-23.242-5.621,2.646-1.7,4.691,7.293-2.646,1.7Zm18.617,4,2.439-8.324,3.021.885-2.445,8.326Zm-12.109-7.455,3.018-.887,2.443,8.324-3.021.887Zm7.211,7.191V22286h3.145v8.672Z" transform="translate(-21262.432 -22285.5)" fill="#fff" stroke="rgba(0,0,0,0)" stroke-miterlimit="10" stroke-width="1"/>
</svg>
