<svg xmlns="http://www.w3.org/2000/svg" width="51.236" height="52.602" viewBox="0 0 51.236 52.602">
  <path id="Union_1" data-name="Union 1" d="M21286.012,20368.436c-.562-.059-1.107-.178-1.664-.268a13.078,13.078,0,0,1-1.643-.354l.781-3.1a11.383,11.383,0,0,0,1.439.311c.486.074.967.186,1.455.234a22.76,22.76,0,0,0,2.941.129c.492-.016.984-.006,1.477-.049l1.465-.182c.24-.037.486-.053.729-.1l.717-.166,1.438-.326.867,3.076-1.637.379-.818.188c-.273.053-.557.074-.834.117l-1.67.2c-.557.049-1.123.043-1.68.064-.2.014-.406.018-.609.018C21287.844,20368.607,21286.928,20368.5,21286.012,20368.436Zm-3.809-4.787c-.449-.16-.895-.338-1.338-.508l-.668-.258-.643-.316-1.279-.641-1.209-.754c-.2-.129-.412-.246-.6-.387l-.572-.432c-.375-.295-.76-.572-1.129-.879l-1.043-.973,2.23-2.295.889.834c.314.258.646.5.967.75l.482.369c.17.117.348.219.518.326l1.039.652,1.1.545.547.273.572.215,1.139.438,1.176.32-.791,3.1Zm11.885-2.824,1.16-.4.584-.187c.188-.068.369-.172.557-.252l1.111-.5c.365-.182.7-.406,1.061-.605a17.886,17.886,0,0,0,2.016-1.363c.326-.24.615-.535.926-.8a8.738,8.738,0,0,0,.883-.84l2.289,2.23a10.354,10.354,0,0,1-1.037.99c-.359.3-.7.641-1.082.93a22.154,22.154,0,0,1-2.363,1.605c-.418.23-.818.492-1.24.7l-1.307.594c-.219.1-.428.209-.652.289l-.68.225-1.354.459Zm-23.68-.123-.562-.627c-.363-.428-.754-.834-1.1-1.277l-.99-1.359c-.16-.234-.342-.449-.482-.7l-.422-.727c-.277-.488-.578-.969-.834-1.467l-.7-1.529c-.111-.258-.234-.508-.336-.771l-.273-.791-.535-1.594,3.076-.877.471,1.4.24.7c.086.225.2.445.295.67l.615,1.348c.225.434.486.85.727,1.277l.375.637c.117.215.277.4.416.605l.867,1.2c.3.387.643.738.963,1.113l.492.551c.16.188.354.342.529.514l-2.23,2.295C21270.809,20361.092,21270.594,20360.914,21270.408,20360.7Zm34.807-2.172,1.006-1.076c.3-.385.6-.781.9-1.166l.449-.588.395-.627.775-1.246.658-1.32c.107-.225.225-.439.322-.664l.268-.689c.17-.461.357-.914.518-1.381l.4-1.416,3.1.785-.449,1.621c-.184.535-.4,1.055-.59,1.578l-.3.781c-.117.256-.246.508-.369.76l-.754,1.5-.883,1.43-.449.711-.514.668c-.342.443-.674.9-1.027,1.332l-1.145,1.23Zm-37.643-11.2-.16-.7c-.043-.23-.064-.471-.1-.707l-.178-1.418c-.031-.475-.025-.951-.043-1.428l-.016-.717a6.667,6.667,0,0,1,.037-.711l.107-1.428c.053-.471.16-.941.236-1.408l.123-.705c.037-.236.117-.461.176-.689l3.1.785c-.047.2-.123.391-.154.594l-.1.6c-.064.4-.16.8-.2,1.2l-.092,1.215c-.01.2-.047.406-.037.609l.021.609c.016.406.006.814.037,1.221l.15,1.209c.027.2.043.406.08.6l.139.6.268,1.193-3.08.865Zm39.563.063a5.929,5.929,0,0,0,.154-.588l.107-.6c.059-.4.154-.8.2-1.205l.092-1.213a5.8,5.8,0,0,0,.037-.609l-.016-.611c-.016-.406-.012-.812-.037-1.219l-.156-1.209c-.025-.2-.043-.406-.074-.605l-.145-.6-.268-1.193,3.082-.861.314,1.391.16.7c.043.236.064.477.1.711l.176,1.418c.037.477.027.953.043,1.428l.021.717a6.713,6.713,0,0,1-.043.713l-.107,1.428c-.053.471-.154.936-.234,1.406l-.123.707c-.037.234-.119.459-.178.689Zm-43.135-10.934.453-1.619c.178-.535.391-1.055.59-1.574l.3-.785c.111-.258.246-.5.363-.76l.754-1.5.889-1.428.449-.711.508-.67c.342-.443.68-.893,1.027-1.332l1.15-1.234,2.295,2.23-1.006,1.074c-.3.387-.6.781-.9,1.172l-.449.584-.391.625-.781,1.252-.658,1.316c-.107.225-.225.438-.32.662l-.268.691c-.172.459-.359.914-.52,1.379l-.391,1.418Zm46.27-1.24-.236-.7c-.09-.225-.2-.449-.3-.674l-.609-1.342c-.225-.434-.488-.852-.729-1.279l-.375-.637c-.117-.213-.277-.4-.416-.6l-.867-1.2c-.3-.385-.641-.738-.963-1.111l-.492-.551c-.16-.187-.354-.344-.529-.514l2.23-2.295c.2.2.418.379.605.588l.561.625c.369.424.754.836,1.1,1.279l.988,1.363c.16.23.344.445.482.691l.422.727c.283.486.578.963.834,1.467l.7,1.529c.113.256.236.508.338.77l.271.8.535,1.59-3.08.877Zm-36.947-7.729a10.294,10.294,0,0,1,1.039-.984c.357-.311.7-.648,1.08-.937a23.121,23.121,0,0,1,2.363-1.6c.418-.234.818-.5,1.242-.705l1.3-.594c.219-.092.428-.2.652-.283l.68-.23,1.354-.461.871,3.082-1.16.4-.578.191c-.191.064-.375.166-.557.246l-1.117.5c-.363.182-.7.406-1.059.6a18.564,18.564,0,0,0-2.018,1.365c-.326.246-.609.533-.92.8a7.683,7.683,0,0,0-.883.844Zm27.838,1.068c-.316-.256-.648-.492-.969-.748l-.482-.375c-.164-.111-.348-.213-.518-.32l-1.033-.652-1.1-.541-.547-.277-.572-.215-1.139-.437-1.182-.322.8-3.1,1.375.385c.449.16.893.336,1.336.508l.67.258.641.314,1.279.637,1.215.76c.2.129.406.246.6.385l.566.434c.375.295.766.572,1.129.877l1.049.975-2.23,2.295Zm-19.178-10.6,1.637-.381.818-.182c.273-.059.557-.08.836-.117l1.668-.209c.563-.047,1.123-.043,1.686-.059a25.845,25.845,0,0,1,3.363.15c.557.059,1.107.176,1.664.268a13.427,13.427,0,0,1,1.643.352l-.787,3.1a10.687,10.687,0,0,0-1.437-.311c-.482-.074-.969-.187-1.455-.234a22.113,22.113,0,0,0-2.943-.129c-.492.016-.982.006-1.471.047l-1.465.188c-.246.033-.492.049-.732.1l-.717.166-1.439.33Z" transform="translate(-21263.381 -20316.506)" fill="#fff" stroke="rgba(0,0,0,0)" stroke-miterlimit="10" stroke-width="1"/>
</svg>
