<svg xmlns="http://www.w3.org/2000/svg" width="52.574" height="52.576" viewBox="0 0 52.574 52.576">
  <path id="Union_1" data-name="Union 1" d="M21264,20342.785a25.787,25.787,0,1,1,25.785,25.791A25.813,25.813,0,0,1,21264,20342.785Zm1.236,0a24.549,24.549,0,1,0,24.549-24.543A24.571,24.571,0,0,0,21265.238,20342.785Zm3.172,0a21.377,21.377,0,1,1,21.377,21.377A21.4,21.4,0,0,1,21268.41,20342.785Zm1.242,0a20.138,20.138,0,1,0,20.135-20.129A20.159,20.159,0,0,0,21269.652,20342.785Zm3.006,0a17.132,17.132,0,1,1,17.129,17.135A17.149,17.149,0,0,1,21272.658,20342.785Zm1.24,0a15.891,15.891,0,1,0,15.889-15.883A15.9,15.9,0,0,0,21273.9,20342.785Zm15.889,12.813a12.8,12.8,0,1,1,.016,0Zm-11.57-12.812a11.57,11.57,0,1,0,11.57-11.561h-.02A11.576,11.576,0,0,0,21278.217,20342.785Zm11.57,8.3a8.292,8.292,0,1,1,.01,0Zm-7.051-8.3a7.054,7.054,0,1,0,7.051-7.045v-.006A7.061,7.061,0,0,0,21282.736,20342.785Z" transform="translate(-21263.502 -20316.5)" fill="#fff" stroke="rgba(0,0,0,0)" stroke-miterlimit="10" stroke-width="1"/>
</svg>
