<svg id="Group_40" data-name="Group 40" xmlns="http://www.w3.org/2000/svg" width="52.035" height="52.035" viewBox="0 0 52.035 52.035">
  <path id="Path_90" data-name="Path 90" d="M283.283,122.945a28.515,28.515,0,0,1,11.409,4.5c-3.9-5.707-9.772-9.366-16.353-9.444l-.219,0c-6.669,0-12.629,3.677-16.571,9.446a29.4,29.4,0,0,1,16.571-4.924A31.494,31.494,0,0,1,283.283,122.945Z" transform="translate(-252.104 -118)" fill="#333"/>
  <path id="Path_91" data-name="Path 91" d="M278.121,767.874a31.416,31.416,0,0,1-5.469-.476,28.459,28.459,0,0,1-11.1-4.448c3.848,5.632,9.618,9.269,16.094,9.44l.258,0,.219,0,.219,0,.124,0c6.531-.123,12.354-3.772,16.229-9.443a28.492,28.492,0,0,1-11.262,4.476A31.434,31.434,0,0,1,278.121,767.874Z" transform="translate(-252.104 -720.361)" fill="#333"/>
  <path id="Path_92" data-name="Path 92" d="M123.022,277.62a29.4,29.4,0,0,1,4.924-16.571c-5.77,3.942-9.446,9.9-9.446,16.571q0,.109,0,.219c0,.086,0,.173,0,.258.171,6.476,3.809,12.246,9.44,16.094a28.458,28.458,0,0,1-4.448-11.1A31.412,31.412,0,0,1,123.022,277.62Z" transform="translate(-118.5 -251.603)" fill="#333"/>
  <path id="Path_93" data-name="Path 93" d="M772.894,277.4c-.079-6.581-3.738-12.454-9.444-16.353a28.515,28.515,0,0,1,4.5,11.41,31.7,31.7,0,0,1-.025,10.471,28.492,28.492,0,0,1-4.476,11.262c5.67-3.874,9.319-9.7,9.443-16.229,0-.041,0-.082,0-.124q0-.109,0-.219T772.894,277.4Z" transform="translate(-720.861 -251.603)" fill="#333"/>
</svg>
